<?xml version="1.0" encoding="iso-8859-1"?>
<!-- Generator: Adobe Illustrator 19.0.0, SVG Export Plug-In . SVG Version: 6.00 Build 0)  -->
<svg version="1.1" id="Capa_1" xmlns="http://www.w3.org/2000/svg" xmlns:xlink="http://www.w3.org/1999/xlink" x="0px" y="0px"
	 viewBox="0 0 512.001 512.001" style="enable-background:new 0 0 512.001 512.001;" xml:space="preserve">
<g>
	<g>
		<path d="M196.338,153.371l-41.169-23.769c0.559-2.442,0.865-4.98,0.865-7.589c0-15.281-10.134-28.236-24.033-32.506V41.973
			c0-5.522-4.477-10-10-10c-5.523,0-10,4.478-10,10v47.552c-13.866,4.291-23.967,17.231-23.967,32.488
			c0,2.598,0.302,5.124,0.857,7.556L47.787,153.3c-4.783,2.762-6.422,8.877-3.66,13.66c1.852,3.208,5.213,5.002,8.669,5.002
			c1.696,0,3.416-0.433,4.991-1.342l41.103-23.731c6.074,5.655,14.209,9.123,23.143,9.123c8.922,0,17.047-3.459,23.119-9.1
			l41.186,23.779c1.575,0.909,3.294,1.342,4.991,1.342c3.455,0,6.817-1.794,8.669-5.002
			C202.76,162.248,201.121,156.133,196.338,153.371z M122.033,136.013c-7.72,0-14-6.28-14-14c0-7.72,6.28-14,14-14
			c7.72,0,14,6.28,14,14C136.033,129.733,129.752,136.013,122.033,136.013z"/>
	</g>
</g>
<g>
	<g>
		<path d="M477.026,36.556l-0.432-0.437c-3.905-3.904-10.237-3.904-14.143,0c-3.905,3.905-3.905,10.237,0,14.143l0.308,0.31
			c1.958,1.993,4.544,2.992,7.134,2.992c2.529,0,5.061-0.954,7.008-2.866C480.84,46.827,480.897,40.496,477.026,36.556z"/>
	</g>
</g>
<g>
	<g>
		<path d="M464.293,153.385l-41.169-23.769c0.559-2.442,0.865-4.98,0.865-7.589c0-15.281-10.134-28.236-24.033-32.506V41.986
			c0-5.522-4.477-10-10-10s-10,4.478-10,10v47.552c-13.866,4.291-23.967,17.231-23.967,32.488c0,2.598,0.302,5.124,0.857,7.556
			l-41.102,23.731c-4.784,2.762-6.423,8.877-3.662,13.661c1.852,3.208,5.213,5.002,8.669,5.002c1.696,0,3.416-0.433,4.991-1.342
			l41.103-23.731c6.074,5.655,14.209,9.123,23.143,9.123c8.922,0,17.047-3.459,23.119-9.1l41.186,23.779
			c1.575,0.909,3.294,1.342,4.991,1.342c3.456,0,6.817-1.794,8.669-5.002C470.715,162.262,469.076,156.147,464.293,153.385z
			 M389.988,136.026c-7.72,0-14-6.28-14-14c0-7.72,6.28-14,14-14c7.72,0,14,6.28,14,14
			C403.988,129.746,397.708,136.026,389.988,136.026z"/>
	</g>
</g>
<g>
	<g>
		<path d="M196.123,421.567l-41.169-23.769c0.559-2.442,0.865-4.98,0.865-7.589c0-15.281-10.134-28.236-24.033-32.506v-47.534
			c0-5.522-4.477-10-10-10s-10,4.478-10,10v47.552c-13.866,4.291-23.967,17.231-23.967,32.488c0,2.598,0.302,5.124,0.857,7.556
			l-41.103,23.731c-4.783,2.762-6.422,8.877-3.66,13.66c1.852,3.208,5.213,5.002,8.669,5.002c1.696,0,3.416-0.433,4.991-1.342
			l41.103-23.731c6.074,5.655,14.209,9.123,23.142,9.123c8.922,0,17.047-3.459,23.119-9.1l41.186,23.779
			c1.575,0.909,3.294,1.342,4.991,1.342c3.456,0,6.817-1.794,8.669-5.002C202.545,430.444,200.906,424.329,196.123,421.567z
			 M121.818,404.208c-7.72,0-14-6.28-14-14c0-7.72,6.281-14,14-14c7.72,0,14,6.28,14,14
			C135.818,397.928,129.538,404.208,121.818,404.208z"/>
	</g>
</g>
<g>
	<g>
		<path d="M49.542,461.789l-0.301-0.302c-3.87-3.94-10.202-3.996-14.142-0.126c-3.939,3.871-3.996,10.202-0.125,14.142l0.44,0.443
			c1.952,1.948,4.508,2.922,7.064,2.922c2.563,0,5.125-0.979,7.078-2.936C53.457,472.023,53.451,465.691,49.542,461.789z"/>
	</g>
</g>
<g>
	<g>
		<path d="M390,268c-25.151,0-48.548,7.652-67.988,20.748c-15.139-19.054-15.157-46.329-0.057-65.404
			c19.942,13.443,43.415,20.67,68,20.67c32.587,0,63.224-12.69,86.267-35.733c37.071-37.07,46.343-93.516,23.072-140.457
			c-2.453-4.949-8.453-6.975-13.401-4.518c-4.948,2.452-6.971,8.452-4.518,13.4c19.455,39.244,11.701,86.437-19.295,117.432
			c-19.265,19.266-44.879,29.876-72.125,29.876c-27.246,0-52.859-10.61-72.125-29.876c-19.265-19.265-29.875-44.879-29.875-72.125
			c0-27.245,10.61-52.859,29.875-72.124c30.098-30.099,76.273-38.34,114.901-20.506c5.016,2.317,10.956,0.127,13.271-4.888
			c2.315-5.015,0.127-10.956-4.888-13.271C394.913-10.104,339.686-0.251,303.689,35.746c-23.043,23.043-35.733,53.68-35.733,86.267
			c0,24.616,7.245,48.115,20.719,68.073c-19.085,15.101-46.375,15.071-65.425-0.093C236.347,170.551,244,147.153,244,122
			C244,54.729,189.271,0,122,0S0,54.729,0,122s54.729,122,122,122c25.16,0,48.564-7.657,68.008-20.761
			c15.176,19.071,15.19,46.395,0.045,65.482c-19.943-13.446-43.419-20.676-68.009-20.676c-32.587,0-63.224,12.69-86.267,35.733
			c-37.07,37.07-46.342,93.516-23.071,140.457c2.453,4.949,8.455,6.972,13.401,4.519c4.948-2.453,6.971-8.453,4.518-13.401
			C11.17,396.109,18.924,348.916,49.92,317.921c19.265-19.266,44.879-29.876,72.125-29.876c27.246,0,52.86,10.61,72.125,29.876
			c39.77,39.77,39.77,104.479,0,144.249c-30.099,30.099-76.274,38.339-114.902,20.506c-5.016-2.315-10.956-0.127-13.271,4.888
			s-0.126,10.956,4.888,13.271c16.266,7.509,33.644,11.152,50.914,11.152c31.785,0,63.188-12.35,86.513-35.674
			c41.891-41.892,46.882-106.914,14.99-154.328c19.076-15.144,46.385-15.14,65.457,0.011C275.656,341.439,268,364.842,268,390
			c0,67.271,54.729,122,122,122s122-54.728,122-122S457.271,268,390,268z M122,224c-56.243,0-102-45.757-102-102S65.757,20,122,20
			s102,45.757,102,102S178.243,224,122,224z M210.816,306.364c-0.821-0.87-1.653-1.734-2.504-2.585
			c-0.87-0.87-1.755-1.721-2.647-2.561c20.966-26.356,20.952-64.131-0.042-90.471c1.762-1.661,3.475-3.374,5.135-5.137
			c13.179,10.505,29.219,15.769,45.264,15.769c16.003,0,31.998-5.238,45.157-15.687c0.823,0.872,1.656,1.738,2.508,2.589
			c0.873,0.873,1.76,1.726,2.654,2.568c-20.919,26.342-20.902,64.066,0.052,90.388c-1.765,1.664-3.48,3.378-5.144,5.143
			C274.913,285.413,237.16,285.408,210.816,306.364z M390,492c-56.243,0-102-45.757-102-102c0-56.243,45.757-102,102-102
			c56.243,0,102,45.757,102,102C492,446.243,446.243,492,390,492z"/>
	</g>
</g>
<g>
	<g>
		<path d="M464.337,421.372l-41.169-23.769c0.559-2.442,0.865-4.98,0.865-7.589c0-15.281-10.134-28.236-24.033-32.506v-47.534
			c0-5.522-4.477-10-10-10s-10,4.478-10,10v47.552c-13.866,4.291-23.967,17.231-23.967,32.488c0,2.598,0.302,5.124,0.857,7.556
			l-41.103,23.731c-4.783,2.762-6.422,8.877-3.66,13.66c1.852,3.208,5.213,5.002,8.669,5.002c1.696,0,3.416-0.433,4.991-1.342
			l41.103-23.731c6.074,5.655,14.209,9.123,23.143,9.123c8.922,0,17.047-3.459,23.119-9.1l41.186,23.779
			c1.575,0.909,3.294,1.342,4.991,1.342c3.456,0,6.817-1.794,8.669-5.002C470.759,430.249,469.12,424.134,464.337,421.372z
			 M390.033,404.014c-7.72,0-14-6.28-14-14c0-7.72,6.28-14,14-14c7.72,0,14,6.28,14,14
			C404.033,397.734,397.752,404.014,390.033,404.014z"/>
	</g>
</g>
<g>
</g>
<g>
</g>
<g>
</g>
<g>
</g>
<g>
</g>
<g>
</g>
<g>
</g>
<g>
</g>
<g>
</g>
<g>
</g>
<g>
</g>
<g>
</g>
<g>
</g>
<g>
</g>
<g>
</g>
</svg>
