<?xml version="1.0" encoding="iso-8859-1"?>
<!-- Generator: Adobe Illustrator 19.0.0, SVG Export Plug-In . SVG Version: 6.00 Build 0)  -->
<svg version="1.1" id="Capa_1" xmlns="http://www.w3.org/2000/svg" xmlns:xlink="http://www.w3.org/1999/xlink" x="0px" y="0px"
	 viewBox="0 0 423.946 423.946" style="enable-background:new 0 0 423.946 423.946;" xml:space="preserve">
<g>
	<g>
		<path d="M355.273,114.625c-16.745,0-30.32,13.575-30.32,30.32c0.022,16.736,13.584,30.298,30.32,30.32
			c16.745,0,30.32-13.575,30.32-30.32C385.593,128.2,372.018,114.625,355.273,114.625z M355.033,160.064
			c-8.303-0.066-15-6.815-15-15.119c-0.023-8.328,6.711-15.098,15.039-15.121c0.067,0,0.134,0,0.201,0.001
			c8.35,0.066,15.066,6.889,15,15.24C370.206,153.415,363.383,160.13,355.033,160.064z"/>
	</g>
</g>
<g>
	<g>
		<path d="M393.873,69.505h-160.36l16.92-13.56c5.044,1.95,10.744,1.066,14.96-2.32l5.4-4.36c6.528-5.247,7.567-14.792,2.32-21.32
			c-5.247-6.528-14.792-7.567-21.32-2.32l-5.4,4.36c-4.162,3.361-6.244,8.666-5.48,13.96l-28.88,23.4l-53.4-43.08
			c0.839-5.361-1.251-10.761-5.48-14.16l-8.4-6.76c-6.528-5.247-16.073-4.208-21.32,2.32c-5.247,6.528-4.208,16.073,2.32,21.32
			l8.4,6.76c4.216,3.386,9.916,4.27,14.96,2.32l41.44,33.44H30.073c-12.574,0.044-22.756,10.226-22.8,22.8v213.56
			c0.01,5.806,2.243,11.388,6.24,15.6l0.44,0.52c4.243,4.25,9.994,6.652,16,6.68h36.68l-20.2,85.88
			c-0.995,4.078,1.504,8.19,5.582,9.185c0.634,0.155,1.285,0.227,1.938,0.215h18.68c3.167,0.003,6.003-1.957,7.12-4.92l40.72-90.36
			h183.12l40.72,90.28c1.09,2.995,3.933,4.991,7.12,5h18.68c4.197-0.002,7.599-3.405,7.597-7.603c0-0.578-0.066-1.154-0.197-1.717
			l-20.2-85.88h36.68c6.006-0.028,11.757-2.43,16-6.68c4.25-4.243,6.652-9.994,6.68-16V92.305
			C416.608,79.74,406.438,69.571,393.873,69.505z M67.713,408.705h-4l18.84-80h21.48L67.713,408.705z M360.513,408.705h-4l-36-80
			h21.48L360.513,408.705z M401.673,305.865c0.008,2.008-0.784,3.936-2.2,5.36c-1.424,1.416-3.352,2.208-5.36,2.2h-364
			c-2.013-0.007-3.94-0.813-5.36-2.24l-0.28-0.28c-1.258-1.393-1.956-3.203-1.96-5.08l-0.04-213.52c0.022-4.188,3.412-7.578,7.6-7.6
			h364c4.197,0,7.6,3.403,7.6,7.6V305.865z"/>
	</g>
</g>
<g>
	<g>
		<path d="M377.993,193.345h-45.44c-4.197-0.003-7.602,3.398-7.605,7.595s3.398,7.602,7.595,7.605c0.003,0,0.006,0,0.009,0h45.44
			c4.197-0.003,7.598-3.407,7.595-7.605C385.586,196.747,382.187,193.348,377.993,193.345z"/>
	</g>
</g>
<g>
	<g>
		<path d="M290.513,99.345H56.033c-10.573,0.022-19.138,8.587-19.16,19.16v162.08c0.022,10.573,8.587,19.138,19.16,19.16h234.48
			c10.564-0.044,19.116-8.596,19.16-19.16v-162.08C309.629,107.941,301.077,99.389,290.513,99.345z M294.513,280.585
			c0,2.209-1.791,4-4,4H56.033c-2.209,0-4-1.791-4-4v-162.04c0-2.209,1.791-4,4-4h234.48c2.209,0,4,1.791,4,4V280.585z"/>
	</g>
</g>
<g>
	<g>
		<path d="M377.993,254.945h-45.44c-4.197,0-7.6,3.403-7.6,7.6c0,4.197,3.403,7.6,7.6,7.6h45.44c4.197,0,7.6-3.403,7.6-7.6
			C385.593,258.348,382.191,254.945,377.993,254.945z"/>
	</g>
</g>
<g>
	<g>
		<path d="M377.993,224.145h-45.44c-4.197,0-7.6,3.403-7.6,7.6c0,4.197,3.403,7.6,7.6,7.6h45.44c4.197,0,7.6-3.403,7.6-7.6
			C385.593,227.548,382.191,224.145,377.993,224.145z"/>
	</g>
</g>
<g>
</g>
<g>
</g>
<g>
</g>
<g>
</g>
<g>
</g>
<g>
</g>
<g>
</g>
<g>
</g>
<g>
</g>
<g>
</g>
<g>
</g>
<g>
</g>
<g>
</g>
<g>
</g>
<g>
</g>
</svg>
