<?xml version="1.0" encoding="iso-8859-1"?>
<!-- Generator: Adobe Illustrator 19.0.0, SVG Export Plug-In . SVG Version: 6.00 Build 0)  -->
<svg version="1.1" id="Layer_1" xmlns="http://www.w3.org/2000/svg" xmlns:xlink="http://www.w3.org/1999/xlink" x="0px" y="0px"
	 viewBox="0 0 480.001 480.001" style="enable-background:new 0 0 480.001 480.001;" xml:space="preserve">
<g>
	<g>
		<g>
			<path d="M454.349,250.527L408.16,124.335c-1.173-3.206-3.901-5.592-7.235-6.327c-3.333-0.737-6.813,0.279-9.227,2.693
				l-98.311,98.304c-13-10.914-28.025-19.717-43.601-25.801c35.383-15.697,60.128-51.173,60.128-92.327
				C309.915,45.253,264.659,0,209.031,0c-55.647,0-100.92,45.253-100.92,100.877c0,38.738,21.934,72.444,54.029,89.361
				c-21.272,7.078-40.571,19.793-56.491,37.485c-2.672-0.32-5.375-0.502-8.108-0.502c-17.937,0-34.795,6.988-47.459,19.67
				l-5.375,5.37c-12.685,12.677-19.668,29.543-19.664,47.491c0.004,17.942,6.989,34.796,19.661,47.451l107.702,107.718l5.374,5.377
				c12.677,12.703,29.535,19.7,47.469,19.703c0.004,0,0.007,0,0.011,0c17.936,0,34.802-6.996,47.48-19.692l5.388-5.383
				c0.062-0.061,0.123-0.124,0.182-0.186l193.717-193.704C454.782,258.283,455.687,254.184,454.349,250.527z M279.175,233.216
				l-63.905,63.9v-89.23h15.339v0.001C247.72,212.741,264.913,221.602,279.175,233.216z M209.031,20
				c44.6,0,80.884,36.281,80.884,80.877c0,2.928-0.165,5.816-0.469,8.665L240.14,60.979c-2.743-2.702-6.793-3.589-10.412-2.282
				l-101.402,36.6C131.207,53.297,166.291,20,209.031,20z M129.569,116.11l101.024-36.463l53.111,52.31
				c-12.202,29.248-41.074,49.86-74.673,49.86C169.619,181.818,136.716,153.482,129.569,116.11z M173.719,207.633
				c0.712,0.161,1.451,0.254,2.211,0.254h19.34v89.261l-50.26-50.249c-5.259-5.266-11.246-9.532-17.724-12.742
				C140.78,221.378,156.581,212.382,173.719,207.633z M238.603,446.164l-0.005,0.005c-8.909,8.921-20.747,13.833-33.337,13.833
				c-0.003,0-0.005,0-0.008,0c-12.585-0.002-24.417-4.914-33.321-13.836l-5.38-5.383v-0.001h-0.001L58.843,333.058
				c-8.896-8.884-13.796-20.713-13.799-33.309c-0.003-12.602,4.898-24.442,13.801-33.34l5.381-5.377
				c8.894-8.905,20.725-13.81,33.315-13.81c12.591,0,24.423,4.904,33.323,13.815l67.321,67.307
				c3.586,3.586,9.212,3.868,13.133,0.868c0.082-0.063,0.168-0.117,0.25-0.184c0.128-0.103,0.247-0.223,0.371-0.335
				c0.13-0.116,0.264-0.226,0.388-0.351L394.763,145.92l38.61,105.487L238.603,446.164z"/>
			<path d="M95.471,286.392c-3.903-3.907-10.235-3.909-14.142-0.007c-3.907,3.903-3.911,10.234-0.007,14.142l40.616,40.657
				c1.953,1.955,4.514,2.933,7.075,2.933c2.558,0,5.115-0.976,7.067-2.926c3.907-3.903,3.911-10.234,0.007-14.142L95.471,286.392z"
				/>
		</g>
	</g>
</g>
<g>
</g>
<g>
</g>
<g>
</g>
<g>
</g>
<g>
</g>
<g>
</g>
<g>
</g>
<g>
</g>
<g>
</g>
<g>
</g>
<g>
</g>
<g>
</g>
<g>
</g>
<g>
</g>
<g>
</g>
</svg>
